<svg width="88" height="88" viewBox="0 0 88 88" fill="none" xmlns="http://www.w3.org/2000/svg">
<circle opacity="0.08" cx="44" cy="44" r="44" fill="#E64D2E"/>
<g clip-path="url(#clip0_1005_4)">
<path d="M41.9805 20C39.8965 20 38.2012 21.6953 38.2012 23.7793V25.123L40.7207 26.3828H41.9805H43.2402L45.7598 25.123V23.7793C45.7598 21.6953 44.0645 20 41.9805 20Z" fill="#FF6A4D"/>
<path d="M45.7598 25.123V23.7793C45.7598 21.6953 44.0645 20 41.9805 20V26.3828H43.2402L45.7598 25.123Z" fill="#E64D2E"/>
<path d="M23 57.9609C23.5838 60.8359 26.2515 63 29.2988 63C32.3461 63 35.0979 60.8359 35.6816 57.9609L32.9448 56.7012H24.7489L23 57.9609Z" fill="#474F54"/>
<path d="M29.2988 60.4805C27.2148 60.4805 25.5195 58.7852 25.5195 56.7012C25.5195 54.6172 27.2148 52.9219 29.2988 52.9219C31.3828 52.9219 33.1621 54.6172 33.1621 56.7012C33.1621 58.7852 31.3828 60.4805 29.2988 60.4805Z" fill="#F2F9FF"/>
<path d="M35.6816 35.2852H28.0391L25.5195 37.8047V45.3633L28.0391 46.623H35.6816L39.4609 45.3633V38.5605L38.2012 37.8047L35.6816 35.2852Z" fill="#DC780B"/>
<path d="M25.5195 32.7656V37.8047H38.2012L39.4609 37.1525L38.2012 36.5449V32.7656H25.5195Z" fill="#FABE2C"/>
<path d="M43.2402 57.9609H23V56.7012C23 51.8309 27.0321 47.8828 31.9023 47.8828L34.002 46.623H45.7598V55.8613L43.2402 57.9609Z" fill="#FF6A4D"/>
<path d="M23 45.3633H40.7207V47.8828H23V45.3633Z" fill="#32393F"/>
<path d="M49.5391 51.7376V56.4743L48.2793 57.9609H43.2402V47.8828H40.7207C39.335 47.8828 38.2012 46.749 38.2012 45.3633V39.0645H45.7598V42.8437C47.1455 42.8437 48.2793 43.9775 48.2793 45.3633V50.4023L49.5391 51.7376Z" fill="#575F64"/>
<path d="M49.5391 51.7376V56.4743L48.2793 57.9609H43.2402V47.8828H41.9805V39.0645H45.7598V42.8437C47.1455 42.8437 48.2793 43.9775 48.2793 45.3633V50.4023L49.5391 51.7376Z" fill="#474F54"/>
<path d="M45.7598 37.8047V36.5449C45.7598 34.4609 44.0645 32.7656 41.9805 32.7656C39.8965 32.7656 38.2012 34.4609 38.2012 36.5449V39.0645C38.2012 41.1517 39.8932 42.8437 41.9805 42.8437H52.1426C54.2298 42.8437 55.9219 41.1517 55.9219 39.0645V37.8047H45.7598Z" fill="#FF6A4D"/>
<path d="M55.9219 39.0645V37.8047H45.7598V36.5449C45.7598 34.4609 44.0645 32.7656 41.9805 32.7656V42.8437H52.1426C54.2298 42.8437 55.9219 41.1517 55.9219 39.0645Z" fill="#E64D2E"/>
<path d="M43.2402 26.3828H41.9805H40.7207L38.2012 27.6426V28.9023C38.2012 30.9863 39.8965 32.7656 41.9805 32.7656C44.0645 32.7656 45.7598 30.9863 45.7598 28.9023V27.6426L43.2402 26.3828Z" fill="#FFE1BA"/>
<path d="M45.7598 28.9023V27.6426L43.2402 26.3828H41.9805V32.7656C44.0645 32.7656 45.7598 30.9863 45.7598 28.9023Z" fill="#FFBFAB"/>
<path d="M41.9805 25.123H38.2012V27.6426H41.9805H48.2793V25.123H41.9805Z" fill="#474F54"/>
<path d="M41.9805 25.123H48.2793V27.6426H41.9805V25.123Z" fill="#32393F"/>
<path d="M59.3936 45.645C59.2546 44.6644 58.979 42.733 58.4291 38.886L53.4023 36.5449V46.623C53.4023 48.6104 51.6903 50.4023 49.5391 50.4023H48.2793V57.9609H50.7988H63.4805L66 56.7012V54.1816C66 50.1514 63.2197 46.6378 59.3936 45.645Z" fill="#E64D2E"/>
<path d="M60.9609 40.3242H57.1816C55.0977 40.3242 53.4023 38.6289 53.4023 36.5449C53.4023 34.4609 55.0977 32.7656 57.1816 32.7656H60.9609V40.3242Z" fill="#FF6A4D"/>
<path d="M60.0798 50.4406L59.7134 51.8405L57.5843 50.7946C55.1547 51.669 53.4023 53.9742 53.4023 56.7012C53.4023 60.1742 56.2282 63 59.7012 63C63.1742 63 66 60.1742 66 56.7012C66 53.3578 63.3736 50.6409 60.0798 50.4406Z" fill="#32393F"/>
<path d="M59.7012 52.9219C57.6172 52.9219 55.9219 54.6172 55.9219 56.7012C55.9219 58.7852 57.6172 60.4805 59.7012 60.4805C61.7852 60.4805 63.4805 58.7852 63.4805 56.7012C63.4805 54.6172 61.7852 52.9219 59.7012 52.9219Z" fill="#DFE7F4"/>
<path d="M60.9487 56.5228L60.0799 50.4406C59.952 50.4329 59.8309 50.4023 59.7012 50.4023C58.9553 50.4023 58.249 50.5555 57.5845 50.7946L58.4538 56.8796L60.9487 56.5228Z" fill="#C7CFE1"/>
</g>
<defs>
<clipPath id="clip0_1005_4">
<rect width="43" height="43" fill="white" transform="translate(23 20)"/>
</clipPath>
</defs>
</svg>
